<svg width="128" height="128" viewBox="0 0 128 128" fill="none" xmlns="http://www.w3.org/2000/svg">
  <defs>
    <linearGradient id="bg" x1="16" y1="10" x2="112" y2="118" gradientUnits="userSpaceOnUse">
      <stop stop-color="#0D63D9"/>
      <stop offset="1" stop-color="#42A5F5"/>
    </linearGradient>
    <linearGradient id="shine" x1="28" y1="26" x2="100" y2="96" gradientUnits="userSpaceOnUse">
      <stop stop-color="#FFFFFF" stop-opacity="0.95"/>
      <stop offset="1" stop-color="#FFFFFF" stop-opacity="0.25"/>
    </linearGradient>
  </defs>

  <rect x="8" y="8" width="112" height="112" rx="30" fill="url(#bg)"/>
  <rect x="18" y="18" width="92" height="92" rx="24" fill="url(#shine)" fill-opacity="0.18"/>

  <path d="M38 46C38 38.268 44.268 32 52 32H76C83.732 32 90 38.268 90 46V82C90 89.732 83.732 96 76 96H52C44.268 96 38 89.732 38 82V46Z" fill="#F4F9FF"/>
  <circle cx="64" cy="50" r="8" fill="#1E88E5"/>
  <path d="M48 82C48 73.164 55.164 66 64 66C72.836 66 80 73.164 80 82V84H48V82Z" fill="#1E88E5"/>
</svg>
